<svg width="24" height="25" viewBox="0 0 24 25" fill="none" xmlns="http://www.w3.org/2000/svg">
<path d="M5.1499 22.5C4.7399 22.5 4.3999 22.16 4.3999 21.75V3.25C4.3999 2.84 4.7399 2.5 5.1499 2.5C5.5599 2.5 5.8999 2.84 5.8999 3.25V21.75C5.8999 22.16 5.5599 22.5 5.1499 22.5Z" fill="#66BB6A"/>
<path opacity="0.4" d="M18.02 12.8299L16.8 11.6099C16.51 11.3599 16.34 10.9899 16.33 10.5799C16.31 10.1299 16.49 9.67986 16.82 9.34986L18.02 8.14986C19.06 7.10986 19.45 6.10986 19.12 5.31986C18.8 4.53986 17.81 4.10986 16.35 4.10986H5.15002C4.94002 4.11986 4.77002 4.28986 4.77002 4.49986V16.4999C4.77002 16.7099 4.94002 16.8799 5.15002 16.8799H16.35C17.79 16.8799 18.76 16.4399 19.09 15.6499C19.42 14.8499 19.04 13.8599 18.02 12.8299Z" fill="#66BB6A"/>
</svg>
