<svg width="40" height="40" viewBox="0 0 40 40" fill="none" xmlns="http://www.w3.org/2000/svg">
<rect width="40" height="40" rx="8" fill="#2B2B2B"/>
<g opacity="0.32">
<path d="M14.67 22H12C10.9 22 10 22.9 10 24V29C10 29.55 10.45 30 11 30H14.67C15.22 30 15.67 29.55 15.67 29V23C15.67 22.45 15.22 22 14.67 22Z" fill="#FAFAFA"/>
<path d="M21.3302 18H18.6602C17.5602 18 16.6602 18.9 16.6602 20V29C16.6602 29.55 17.1102 30 17.6602 30H22.3302C22.8802 30 23.3302 29.55 23.3302 29V20C23.3302 18.9 22.4402 18 21.3302 18Z" fill="#FAFAFA"/>
<path d="M28.0001 25H25.3301C24.7801 25 24.3301 25.45 24.3301 26V29C24.3301 29.55 24.7801 30 25.3301 30H29.0001C29.5501 30 30.0001 29.55 30.0001 29V27C30.0001 25.9 29.1001 25 28.0001 25Z" fill="#FAFAFA"/>
<path d="M23.0104 12.85C23.3204 12.54 23.4404 12.17 23.3404 11.85C23.2404 11.53 22.9304 11.3 22.4904 11.23L21.5304 11.07C21.4904 11.07 21.4004 11 21.3804 10.96L20.8504 9.89998C20.4504 9.08998 19.5404 9.08998 19.1404 9.89998L18.6104 10.96C18.6004 11 18.5104 11.07 18.4704 11.07L17.5104 11.23C17.0704 11.3 16.7704 11.53 16.6604 11.85C16.5604 12.17 16.6804 12.54 16.9904 12.85L17.7304 13.6C17.7704 13.63 17.8004 13.75 17.7904 13.79L17.5804 14.71C17.4204 15.4 17.6804 15.71 17.8504 15.83C18.0204 15.95 18.3904 16.11 19.0004 15.75L19.9004 15.22C19.9404 15.19 20.0704 15.19 20.1104 15.22L21.0004 15.75C21.2804 15.92 21.5104 15.97 21.6904 15.97C21.9004 15.97 22.0504 15.89 22.1404 15.83C22.3104 15.71 22.5704 15.4 22.4104 14.71L22.2004 13.79C22.1904 13.74 22.2204 13.63 22.2604 13.6L23.0104 12.85Z" fill="#FAFAFA"/>
</g>
</svg>
