<svg width="20" height="20" viewBox="0 0 20 20" fill="none" xmlns="http://www.w3.org/2000/svg">
<path d="M16.8251 11.7163L15.8834 10.1497C15.6751 9.80801 15.4918 9.14967 15.4918 8.74967V7.19134C15.4918 4.16634 13.0334 1.70801 10.0168 1.70801C6.99175 1.71634 4.53342 4.16634 4.53342 7.19134V8.74134C4.53342 9.14134 4.35009 9.79967 4.15009 10.1413L3.20842 11.708C2.85009 12.3163 2.76675 13.008 2.99175 13.608C3.21675 14.2163 3.72509 14.6997 4.39175 14.9163C5.29175 15.2163 6.20009 15.433 7.12509 15.5913C7.21675 15.608 7.30842 15.6163 7.40009 15.633C7.51675 15.6497 7.64175 15.6663 7.76675 15.683C7.98342 15.7163 8.20009 15.7413 8.42509 15.758C8.95009 15.808 9.48342 15.833 10.0168 15.833C10.5418 15.833 11.0668 15.808 11.5834 15.758C11.7751 15.7413 11.9668 15.7247 12.1501 15.6997C12.3001 15.683 12.4501 15.6663 12.6001 15.6413C12.6918 15.633 12.7834 15.6163 12.8751 15.5997C13.8084 15.4497 14.7334 15.2163 15.6334 14.9163C16.2751 14.6997 16.7668 14.2163 17.0001 13.5997C17.2334 12.9747 17.1668 12.2913 16.8251 11.7163ZM10.6251 8.33301C10.6251 8.68301 10.3418 8.96634 9.99175 8.96634C9.64175 8.96634 9.35842 8.68301 9.35842 8.33301V5.74967C9.35842 5.39967 9.64175 5.11634 9.99175 5.11634C10.3418 5.11634 10.6251 5.39967 10.6251 5.74967V8.33301Z" fill="#FAFAFA"/>
<path d="M12.3585 16.6753C12.0085 17.642 11.0835 18.3337 10.0001 18.3337C9.34181 18.3337 8.69181 18.067 8.23348 17.592C7.96681 17.342 7.76681 17.0087 7.65015 16.667C7.75848 16.6837 7.86681 16.692 7.98348 16.7087C8.17515 16.7337 8.37515 16.7587 8.57515 16.7753C9.05015 16.817 9.53348 16.842 10.0168 16.842C10.4918 16.842 10.9668 16.817 11.4335 16.7753C11.6085 16.7587 11.7835 16.7503 11.9501 16.7253C12.0835 16.7087 12.2168 16.692 12.3585 16.6753Z" fill="#FAFAFA"/>
</svg>
