<svg width="24" height="24" viewBox="0 0 24 24" fill="none" xmlns="http://www.w3.org/2000/svg">
<rect width="24" height="24" rx="5" fill="#2196F3"/>
<path d="M11.9219 19C11.5362 19 11.3111 18.775 11.3111 18.3651V17.4891C10.3467 17.3846 9.47876 17.0471 8.85189 16.5247C8.31343 16.0746 8 15.5362 8 15.07C8 14.6682 8.2411 14.4191 8.60276 14.4191C8.84386 14.4191 8.94834 14.4834 9.29392 14.9334C10.0253 15.9059 10.837 16.3157 12.0103 16.3157C13.5132 16.3157 14.3972 15.6246 14.3972 14.4673C14.3972 13.5832 13.8749 13.0769 12.6292 12.7555L10.7968 12.2893C9.14122 11.8714 8.22503 10.8427 8.22503 9.41217C8.22503 7.74053 9.44661 6.5752 11.3835 6.40643V5.6349C11.3835 5.22503 11.6165 5 11.9943 5C12.3639 5 12.6051 5.22503 12.6051 5.6349V6.43858C13.5132 6.55913 14.3249 6.92078 14.8955 7.46728C15.3697 7.91734 15.651 8.44776 15.651 8.88175C15.651 9.25143 15.4259 9.4845 15.0723 9.4845C14.7991 9.4845 14.6223 9.36395 14.3249 8.95408C13.6177 7.98163 12.9185 7.58783 11.8657 7.58783C10.5075 7.58783 9.62342 8.28703 9.62342 9.33984C9.62342 10.1515 10.1699 10.7382 11.1906 11.0034L12.9908 11.4615C14.9277 11.9518 15.8117 12.868 15.8117 14.3708C15.8117 16.1148 14.558 17.3042 12.5327 17.5052V18.3651C12.5327 18.775 12.2997 19 11.9219 19Z" fill="white"/>
</svg>
